<svg xmlns="http://www.w3.org/2000/svg" xmlns:xlink="http://www.w3.org/1999/xlink" viewBox="0 0 900 851.93"><defs><style>.cls-1{isolation:isolate;}.cls-2{fill:url(#radial-gradient);}.cls-3{fill:#2e8c45;}.cls-4{fill:#fff;}.cls-5{fill:#af8d75;}.cls-6{fill:#d6ae92;}.cls-7{fill:#936e55;}.cls-8{fill:#ffc024;}.cls-9{fill:#f27900;}.cls-10{fill:#ffea80;}.cls-10,.cls-12{opacity:0.5;}.cls-11{fill:#cc2929;}.cls-12{fill:#b5642d;}.cls-13{fill:#ffde8d;}.cls-14{fill:#b26500;}.cls-15{fill:#66270c;}.cls-16{fill:#1993af;}.cls-17{fill:#00c6c1;}.cls-18{mix-blend-mode:multiply;opacity:0.18;}.cls-19{fill:#006b63;}.cls-20,.cls-21,.cls-37,.cls-40,.cls-41,.cls-42,.cls-43{fill:none;stroke-miterlimit:10;}.cls-20{stroke:#077068;stroke-width:5px;}.cls-21{stroke:#fff;stroke-width:7px;}.cls-22{fill:#54221d;opacity:0.7;}.cls-23{fill:#ffaa3b;}.cls-24{fill:url(#radial-gradient-2);}.cls-25{fill:#f58d6c;}.cls-26{fill:#ffb287;}.cls-27{fill:#90afaf;}.cls-28{fill:#ba4200;}.cls-29{fill:#8e2f00;}.cls-30{fill:#374c58;}.cls-31{fill:#2a3c44;}.cls-32{fill:#102333;}.cls-33{fill:#819da5;}.cls-34{fill:#c8d6d6;}.cls-35{fill:#d4e8e7;}.cls-36{fill:#1f3242;}.cls-37,.cls-43{stroke:#102333;}.cls-37{stroke-width:2.9px;}.cls-38{fill:#602812;}.cls-39{fill:#89351b;}.cls-40,.cls-41{stroke:#602812;}.cls-40{stroke-width:0.88px;}.cls-41{stroke-width:1.18px;}.cls-42{stroke:#dfeded;stroke-width:3.2px;}.cls-43{stroke-width:1.18px;}</style><radialGradient id="radial-gradient" cx="475" cy="454" r="498" gradientUnits="userSpaceOnUse"><stop offset="0.08" stop-color="#7ee0cf"/><stop offset="0.46" stop-color="#66ced1"/><stop offset="1" stop-color="#3fafd4"/></radialGradient><radialGradient id="radial-gradient-2" cx="471.67" cy="272.66" r="375.35" gradientUnits="userSpaceOnUse"><stop offset="0" stop-color="#d3db40"/><stop offset="0.1" stop-color="#c3d240"/><stop offset="0.37" stop-color="#9bbc3f"/><stop offset="0.62" stop-color="#7eab3e"/><stop offset="0.84" stop-color="#6ca23e"/><stop offset="1" stop-color="#669e3e"/></radialGradient></defs><g class="cls-1"><g id="Layer_1" data-name="Layer 1"><path class="cls-2" d="M728.43,304.18a255,255,0,0,1-41.68,140.1l-.88,1.33q-6.25,9.42-13.3,18.24a256.13,256.13,0,0,1-400.52,0q-7-8.81-13.29-18.24l-.89-1.33a256.19,256.19,0,1,1,470.56-140.1Z" transform="translate(0 -48.07)"/><path class="cls-3" d="M258.76,445.61Q265,455,272.05,463.85H672.57q7-8.81,13.3-18.24l.88-1.33H257.87Z" transform="translate(0 -48.07)"/><path class="cls-3" d="M700.92,419.78a256.08,256.08,0,0,1-14.17,24.5l-.88,1.33H634.79c-.12-.44-.24-.88-.34-1.33a29,29,0,0,1-.75-6.56c0-17.19,14.95-31.13,33.39-31.13a36.17,36.17,0,0,1,3.91.21,33.76,33.76,0,0,1,23.79,13.55,27.92,27.92,0,0,1,5.68-.58Z" transform="translate(0 -48.07)"/><path class="cls-3" d="M258.76,445.61h73c0-.42,0-.86,0-1.29v0a23,23,0,0,0-1.75-8.77c-3.79-9.21-13.37-15.74-24.57-15.74a27.92,27.92,0,0,0-5.68.58A33.76,33.76,0,0,0,276,406.8a36.17,36.17,0,0,0-3.91-.21,34,34,0,0,0-27.93,14.07,256.07,256.07,0,0,0,13.71,23.62Z" transform="translate(0 -48.07)"/><path class="cls-3" d="M644.81,440.61a18.35,18.35,0,0,1-.68,5H585.82c0-.27,0-.54,0-.82a14.65,14.65,0,0,1,1.1-5.58,16.71,16.71,0,0,1,15.58-10,17.72,17.72,0,0,1,3.6.37,21.4,21.4,0,0,1,15.09-8.6,22.5,22.5,0,0,1,2.48-.13C635.34,420.87,644.81,429.71,644.81,440.61Z" transform="translate(0 -48.07)"/><path class="cls-4" d="M341.71,184.78v1.51a12.08,12.08,0,0,1-12,12.05H292a12.09,12.09,0,0,0-12.05,12v5.14a12.08,12.08,0,0,1-12.05,12.05h-40a254.56,254.56,0,0,1,24.62-54.86h77.19A12.09,12.09,0,0,1,341.71,184.78Z" transform="translate(0 -48.07)"/><path class="cls-4" d="M714.32,220.15H639.65a11.76,11.76,0,0,1-11.72-11.72V192.92a11.75,11.75,0,0,1,11.72-11.71h24.68a11.76,11.76,0,0,0,11.72-11.72v-1a11.76,11.76,0,0,0-11.72-11.72H586.45c-6.12,0-11.12-4.44-11.12-9.86s-5-9.86-11.14-9.86h-40a11.75,11.75,0,0,1-11.71-11.72,11.75,11.75,0,0,1,11.71-11.71h119.2A256.3,256.3,0,0,1,714.32,220.15Z" transform="translate(0 -48.07)"/><polygon class="cls-5" points="574.15 87.45 574.15 176.6 532.33 156.63 532.33 87.45 574.15 87.45"/><rect class="cls-6" x="536.21" y="100.42" width="18.96" height="10.13" rx="2.24"/><rect class="cls-6" x="551.96" y="117.34" width="16.82" height="8.99" rx="1.99"/><polygon class="cls-7" points="564.15 87.45 564.15 171.82 574.15 176.6 574.15 87.45 564.15 87.45"/><path class="cls-6" d="M545,177.54H532.33v10.52H545a2.33,2.33,0,0,0,2.33-2.33v-5.86A2.33,2.33,0,0,0,545,177.54Z" transform="translate(0 -48.07)"/><polygon class="cls-8" points="643.87 207.59 643.87 415.57 301.35 415.57 301.35 207.59 473.76 92.84 643.87 207.59"/><polygon class="cls-9" points="301.35 246.69 301.35 203.55 494.44 110.51 494.44 116.64 301.35 246.69"/><rect class="cls-10" x="557.13" y="191.95" width="29.86" height="15.95" rx="3.53"/><rect class="cls-10" x="543.38" y="217.8" width="29.86" height="15.95" rx="3.53"/><path class="cls-10" d="M331.9,396.09h19.21V380.14H331.9a3.53,3.53,0,0,0-3.53,3.53v8.88A3.53,3.53,0,0,0,331.9,396.09Z" transform="translate(0 -48.07)"/><polygon class="cls-9" points="643.87 245.69 643.87 220.56 450.77 110.51 450.77 115.64 643.87 245.69"/><polygon class="cls-11" points="293 237.26 281.02 216.89 474.12 86.84 664.06 216.48 649.33 237.6 473.91 121.61 293 237.26"/><polygon class="cls-12" points="458.93 415.57 448.63 415.57 360.59 415.57 349.29 415.57 349.29 249.69 458.93 249.69 458.93 415.57"/><polygon class="cls-13" points="458.93 415.57 448.63 415.57 448.63 261.22 458.93 249.69 458.93 415.57"/><polygon class="cls-14" points="349.29 415.57 360.59 415.57 360.59 261.22 349.29 249.69 349.29 415.57"/><rect class="cls-4" x="360.59" y="261.22" width="88.04" height="154.35"/><path class="cls-4" d="M357.59,306.29V463.64h6V312.29h82V463.64h6V306.29Z" transform="translate(0 -48.07)"/><rect class="cls-12" x="497.99" y="249.68" width="120.63" height="120.52"/><polygon class="cls-13" points="618.63 370.2 606.33 358.67 606.33 261.22 618.63 249.69 618.63 370.2"/><polygon class="cls-14" points="497.99 370.2 510.29 358.67 510.29 261.22 497.99 249.69 497.99 370.2"/><rect class="cls-15" x="381.87" y="277.71" width="45.48" height="85.47"/><rect class="cls-16" x="510.29" y="261.24" width="96.04" height="97.4"/><rect class="cls-16" x="383.12" y="278.53" width="42.99" height="83.54"/><polygon class="cls-17" points="537.45 358.64 606.33 288.85 606.33 278.27 527 358.64 537.45 358.64"/><polygon class="cls-17" points="605.35 261.24 605.35 270.07 517.93 358.64 510.29 358.64 510.29 329.78 577.94 261.24 605.35 261.24"/><polygon class="cls-17" points="426.11 284.39 426.11 310.73 384.34 352.07 383.12 352.07 383.12 327.24 426.11 284.39"/><g class="cls-18"><rect class="cls-19" x="385.53" y="278.53" width="5.53" height="83.54"/></g><g class="cls-18"><rect class="cls-19" x="512.28" y="262.27" width="7.29" height="95.35"/></g><g class="cls-18"><rect class="cls-19" x="509.75" y="263.3" width="95.35" height="7.29"/></g><rect class="cls-20" x="383.82" y="278.53" width="41.58" height="82.51"/><rect class="cls-21" x="510.29" y="261.22" width="96.04" height="97.43"/><line class="cls-21" x1="558.31" y1="261.22" x2="558.31" y2="358.64"/><circle class="cls-22" cx="440.58" cy="352.37" r="4.4"/><circle class="cls-23" cx="440.58" cy="348.72" r="4.4"/><polygon class="cls-4" points="291.02 244.62 280.8 229.89 473.89 99.84 664.74 230.93 655.04 246.24 473.69 121.61 291.02 244.62"/><rect class="cls-10" x="459.91" y="155.51" width="25.1" height="13.41" rx="2.97"/><rect class="cls-10" x="478.45" y="180.13" width="29.86" height="15.95" rx="3.53"/><rect class="cls-10" x="400.33" y="227.03" width="29.86" height="15.95" rx="3.53"/><rect class="cls-10" x="501.17" y="379.89" width="24.97" height="13.34" rx="2.96"/><rect class="cls-10" x="558.31" y="391.04" width="29.86" height="15.95" rx="3.53"/><polygon class="cls-12" points="643.87 352.81 643.87 415.57 630.47 415.57 630.47 378.69 622.95 378.69 622.95 422.58 606.01 422.58 606.01 378.69 598.49 378.69 598.49 422.58 581.55 422.58 581.55 378.69 574.03 378.69 574.03 422.58 557.1 422.58 557.1 378.69 549.57 378.69 549.57 422.58 532.64 422.58 532.64 378.69 525.11 378.69 525.11 422.58 508.18 422.58 508.18 378.69 500.65 378.69 500.65 422.58 483.72 422.58 483.72 355.97 492.19 348.41 500.65 355.97 500.65 366.64 508.18 366.64 508.18 355.97 516.64 348.41 525.11 355.97 525.11 366.64 532.64 366.64 532.64 355.97 541.1 348.41 549.57 355.97 549.57 366.64 557.1 366.64 557.1 355.97 565.56 348.41 574.03 355.97 574.03 366.64 581.55 366.64 581.55 355.97 590.02 348.41 598.49 355.97 598.49 366.64 606.01 366.64 606.01 355.97 614.48 348.41 622.95 355.97 622.95 366.64 630.47 366.64 630.47 355.97 638.94 348.41 643.87 352.81"/><polygon class="cls-12" points="345.9 355.97 345.9 422.58 328.96 422.58 328.96 378.69 321.44 378.69 321.44 422.58 304.5 422.58 304.5 378.69 301.35 378.69 301.35 366.64 304.5 366.64 304.5 355.97 312.97 348.41 321.44 355.97 321.44 366.64 328.96 366.64 328.96 355.97 337.43 348.41 345.9 355.97"/><path class="cls-24" d="M271.1,462.65C318,522.12,472.31,638.7,472.31,638.7S626.62,522.12,673.52,462.65Z" transform="translate(0 -48.07)"/><rect class="cls-4" x="235.37" y="358.64" width="95.15" height="12.05"/><rect class="cls-4" x="482.03" y="358.64" width="242.22" height="12.05"/><rect class="cls-7" x="532.33" y="87.45" width="41.82" height="4.93"/><path class="cls-25" d="M573.65,123H532.83a4.79,4.79,0,0,0-4.8,4.8v8.29h50.42v-8.29A4.79,4.79,0,0,0,573.65,123Z" transform="translate(0 -48.07)"/><polygon class="cls-4" points="334.4 414.58 317.46 414.58 317.46 347.96 325.93 340.41 334.4 347.96 334.4 414.58"/><polygon class="cls-4" points="489.15 414.58 472.22 414.58 472.22 347.96 480.69 340.41 489.15 347.96 489.15 414.58"/><polygon class="cls-4" points="513.61 414.58 496.68 414.58 496.68 347.96 505.14 340.41 513.61 347.96 513.61 414.58"/><polygon class="cls-4" points="538.07 414.58 521.14 414.58 521.14 347.96 529.6 340.41 538.07 347.96 538.07 414.58"/><polygon class="cls-4" points="562.53 414.58 545.6 414.58 545.6 347.96 554.06 340.41 562.53 347.96 562.53 414.58"/><polygon class="cls-4" points="586.99 414.58 570.05 414.58 570.05 347.96 578.52 340.41 586.99 347.96 586.99 414.58"/><polygon class="cls-4" points="611.45 414.58 594.51 414.58 594.51 347.96 602.98 340.41 611.45 347.96 611.45 414.58"/><polygon class="cls-4" points="635.9 414.58 618.97 414.58 618.97 347.96 627.44 340.41 635.9 347.96 635.9 414.58"/><polygon class="cls-4" points="660.36 414.58 643.43 414.58 643.43 347.96 651.9 340.41 660.36 347.96 660.36 414.58"/><polygon class="cls-4" points="684.82 414.91 667.89 414.91 667.89 348.29 676.36 340.74 684.82 348.29 684.82 414.91"/><polygon class="cls-4" points="285.48 414.58 268.55 414.58 268.55 347.96 277.01 340.41 285.48 347.96 285.48 414.58"/><polygon class="cls-4" points="309.94 414.58 293 414.58 293 347.96 301.47 340.41 309.94 347.96 309.94 414.58"/><path class="cls-4" d="M709.28,419V396.36l-8.46-7.55-8.47,7.55v51.51A255.36,255.36,0,0,0,709.28,419Z" transform="translate(0 -48.07)"/><path class="cls-4" d="M244.09,396v24.48A254.42,254.42,0,0,0,261,448.94V396l-8.47-7.56Z" transform="translate(0 -48.07)"/><path class="cls-25" d="M601.71,692C556.9,679.88,541,716.45,489.24,720.32c0,0-62.72-7.37-55.31,13.4,1.93,5.41,9.26,10.53,15.5,12.72-13.87-.12-24.13.41-24.13.41-67.1-49.71-85.56-31.94-85.56-31.94l84.76,54.81s118.89,13.14,121.26,13.33,46.33-47.56,46.33-47.56l221,117.9,24.67-55.95S615.23,695.7,601.71,692Z" transform="translate(0 -48.07)"/><path class="cls-26" d="M324.52,712.84c11.58-6,40.24-5.76,84.66,39.83,0,0,40.52-.4,74.33,22.47,0,0,107.58-77.34,132.91-75.13s221.35,97.43,221.35,97.43l5.11,75.17L773,877.36,629.05,770S522.2,821.47,507.17,828.59c-19.39,9.19-70-36.5-105.38-47.89-12.08-3.88-62.38-44.92-78.23-58A5.94,5.94,0,0,1,324.52,712.84Z" transform="translate(0 -48.07)"/><polygon class="cls-4" points="635.92 752.55 689.17 652.35 859.42 740.59 859.42 828.84 768.86 828.84 635.92 752.55"/><polygon class="cls-27" points="635.92 752.55 706.55 661.35 859.42 828.84 768.86 828.84 635.92 752.55"/><polygon class="cls-28" points="649.11 769.44 708.89 656.95 900 756.01 900 851.93 798.34 851.93 649.11 769.44"/><circle class="cls-29" cx="679.22" cy="764.44" r="8.42"/><circle class="cls-29" cx="703.25" cy="827.29" r="8.42" transform="translate(-379.01 691.51) rotate(-45)"/><path class="cls-25" d="M308.47,517.26s76.72,25,109.61-13.83l43.71,5.33s25.41,65,51.25,57.16c11.11-3.38-2.44-16.56-32.76-73.94,0,0-41.8-30.69-108.88-33.34Z" transform="translate(0 -48.07)"/><path class="cls-26" d="M0,611.09,171,500.94a108.58,108.58,0,0,0,11.69-8.8,75,75,0,0,1,28.53-14.89c49.13-13.68,173.57-45.83,189-46,7.61-.07,59.53,55.91,72.52,71.86a20.87,20.87,0,0,1,4.45,9.56c3,17.27,12.17,72,8,75.8-5,4.56-26.94,6.24-42-71.85l-54.29-19.91-16.24,24.81s-59.31,56.06-135.1,22.67L0,768.61Z" transform="translate(0 -48.07)"/><path class="cls-25" d="M176.58,497.85s23,36.16,58.73,48.47L218,563.91,170,504.1Z" transform="translate(0 -48.07)"/><polygon class="cls-4" points="251.54 554.94 175.66 449.07 17.73 556.68 20.54 674.29 111.95 662.02 251.54 554.94"/><polygon class="cls-27" points="251.54 554.94 157.27 461.98 8.94 675.85 111.95 662.02 251.54 554.94"/><polygon class="cls-30" points="241.43 575.29 156.25 456.45 0 555.41 0 757.9 241.43 575.29"/><path class="cls-31" d="M203.9,624.32a6.55,6.55,0,1,0,5.62-7.36A6.55,6.55,0,0,0,203.9,624.32Z" transform="translate(0 -48.07)"/><circle class="cls-31" cx="193.4" cy="637.32" r="6.55" transform="translate(-459.67 458.55) rotate(-61.8)"/><path class="cls-25" d="M377.79,522.59l-9-13c-.62-.57-.61-3.85,2-2.74,5.81,2.46,5.3,10.43,18.08-9.1Z" transform="translate(0 -48.07)"/><path class="cls-32" d="M472.61,626.5l4.93,7.13c5.71,8.27,17.59,10.68,26.52,5.39l5.63-3.33c8.93-5.28,11.54-16.27,5.83-24.54L510.59,604c-5.71-8.27-17.59-10.68-26.52-5.4L478.44,602C469.51,607.24,466.9,618.23,472.61,626.5Zm11.25-23.11c5.87-3.47,10.79,3.65,4.93,7.13S478,606.86,483.86,603.39Z" transform="translate(0 -48.07)"/><polygon class="cls-33" points="502.24 566.08 526.59 601.31 530.43 599.37 532.23 601.96 530.5 606.97 531.06 607.79 534.91 605.85 536.7 608.44 534.97 613.45 535.54 614.27 539.39 612.33 541.18 614.92 539.45 619.93 540.86 621.97 537.68 635.21 523.7 632.12 485.08 576.23 502.24 566.08"/><polygon class="cls-34" points="537.66 617.33 539.07 619.38 535.89 632.62 521.91 629.53 508.14 609.6 504.73 604.67 483.29 573.64 500.44 563.48 520.17 592.02 523.57 596.95 524.8 598.72 530.43 599.37 528.7 604.38 529.27 605.2 534.91 605.85 533.18 610.86 533.75 611.68 539.39 612.33 537.66 617.33"/><path class="cls-35" d="M523.57,645q-7.67,6.4-15.43,12.65l-3.41-4.93q7.77-6.25,15.44-12.65Z" transform="translate(0 -48.07)"/><polygon class="cls-33" points="531.39 628.43 524.46 625.54 488.07 572.88 491.57 570.8 531.39 628.43"/><polygon class="cls-33" points="534.54 626.57 534.61 619.53 498.22 566.87 494.72 568.94 534.54 626.57"/><path class="cls-36" d="M512.94,607.55,508,600.42c-5.71-8.27-17.58-10.68-26.52-5.4l-5.63,3.33c-8.63,5.11-11.36,15.55-6.37,23.71q.25.42.54.84L475,630a19.1,19.1,0,0,0,11.79,7.72,20.44,20.44,0,0,0,14.73-2.32l5.63-3.33C516,626.81,518.65,615.82,512.94,607.55Zm-24.82,2.13c-5.87,3.48-11.69-4.94-5.82-8.42S494,606.21,488.12,609.68Zm-1.37,28.07A19.1,19.1,0,0,1,475,630L470,622.9q-.28-.42-.54-.84c.71-3.52,1.76-7.85,1.76-8.18,0-.5.25-5.13.25-5.13C477.45,611.72,484.25,620.88,486.75,637.75Z" transform="translate(0 -48.07)"/><path class="cls-37" d="M489,610.58a5.86,5.86,0,0,0,2-8.46,7,7,0,0,0-9.15-1.86" transform="translate(0 -48.07)"/><path class="cls-38" d="M461.62,608.5c-11.63-.72-21.75,8.32-22.53,19.09s8,20.08,19.66,20.8,21.7-7.42,22.48-18.19S473.26,609.22,461.62,608.5Zm-1.46,13c-8.23-.51-7.51-10.51.73-10S468.4,622,460.16,621.49Z" transform="translate(0 -48.07)"/><path class="cls-33" d="M460.05,687.19a2,2,0,0,1,.24-3.38l4.95-2.69.17-2.37-4.52-3.27a2,2,0,0,1,.25-3.38l4.95-2.69,2.67-36.9a5.76,5.76,0,0,0-5.63-6l-5.37-.33a5.89,5.89,0,0,0-6.43,5.2l-4.27,59.1a5.27,5.27,0,0,0,1.25,3.79l2.48,3a6.37,6.37,0,0,0,9,.56l2.89-2.64a5.42,5.42,0,0,0,1.78-3.61l.09-1.14Z" transform="translate(0 -48.07)"/><path class="cls-34" d="M469,629.88l-.39,5.38-.72,9.89-.7,9.75-.6,8.26-.26,3.62-4.95,2.68a2,2,0,0,0-.24,3.38l4.51,3.27-.17,2.37-4.95,2.69a2,2,0,0,0-.24,3.38l4.52,3.27-.09,1.15a5.44,5.44,0,0,1-1.78,3.61L460,695.21a6.36,6.36,0,0,1-9-.56l-2.48-3a5.27,5.27,0,0,1-1.25-3.79l.69-9.6.59-8.13,1.86-25.77.67-9.22.46-6.37a5.91,5.91,0,0,1,6.43-5.21l5.37.34A5.76,5.76,0,0,1,469,629.88Z" transform="translate(0 -48.07)"/><path class="cls-35" d="M467.14,654.9l-.6,8.26q-9.23,7.68-18.6,15.13l.59-8.13Q457.91,662.63,467.14,654.9Z" transform="translate(0 -48.07)"/><path class="cls-33" d="M468.56,635.26l-.72,9.89c-7.95,2.88-15.82-.08-17.45-.76l.67-9.22a42.67,42.67,0,0,0,7.75-.73C465,633.26,465.86,634.53,468.56,635.26Z" transform="translate(0 -48.07)"/><polygon class="cls-33" points="453.47 643.99 450.47 639.09 454.56 580.06 457.88 580.26 453.47 643.99"/><path class="cls-39" d="M462,605.24a22.13,22.13,0,0,0-14.9,4.46,20.6,20.6,0,0,0-3.86,3.89,18.59,18.59,0,0,0-3.72,9.84c-.78,10.76,8,20.08,19.66,20.8s21.7-7.43,22.47-18.19S473.61,606,462,605.24Zm-1.65,15.42a5.76,5.76,0,0,1-5.32-3.55,6.14,6.14,0,0,1-.23-3.88,5.86,5.86,0,0,1,6.41-4.39C469.42,609.35,468.57,621.17,460.33,620.66Z" transform="translate(0 -48.07)"/><path class="cls-38" d="M455,617.11c-3.13-.31-7.92-1-11.79-3.52a20.6,20.6,0,0,1,3.86-3.89c2.28,1.27,5.23,2.9,5.61,3s1.17.26,2.09.48A6.14,6.14,0,0,0,455,617.11Z" transform="translate(0 -48.07)"/><path class="cls-40" d="M469.59,642.9a25.21,25.21,0,0,1-10.45,1.52,24.82,24.82,0,0,1-10.73-3.12" transform="translate(0 -48.07)"/><path class="cls-41" d="M460.57,621.18a6.22,6.22,0,1,1,0-12.41" transform="translate(0 -48.07)"/><path class="cls-42" d="M481.5,608.9c10.7-8.11,13.39-22.54,5.75-33.59C479,563.4,461.9,559.91,449,567.53s-16.64,23.46-8.41,35.38c5.88,8.5,16.28,12.71,26.43,11.65" transform="translate(0 -48.07)"/><path class="cls-37" d="M481.82,600.26a5.86,5.86,0,0,0-2,8.46,6.94,6.94,0,0,0,9.14,1.86" transform="translate(0 -48.07)"/><path class="cls-43" d="M490,638.67a23.05,23.05,0,0,0,11.49-3.26l5.63-3.33a21,21,0,0,0,7.67-7.64" transform="translate(0 -48.07)"/><path class="cls-41" d="M460.57,608.77a6.22,6.22,0,1,1,0,12.41" transform="translate(0 -48.07)"/><path class="cls-26" d="M223,541.07s44.67,16.33,97.41,18.8a237.86,237.86,0,0,1,85.55,20.51l18.47,8.27c23.9,10.77,39,31.27,49.17,13.47S447.12,560,415.6,548.52s-48.92-60.93-48.92-60.93Z" transform="translate(0 -48.07)"/></g></g></svg>