<svg xmlns="http://www.w3.org/2000/svg" viewBox="0 0 4000 4000"><defs><style>.cls-1{isolation:isolate;}.cls-2{fill:#fdfeff;}.cls-17,.cls-3{fill:#70c329;}.cls-4{fill:#137caa;}.cls-5{fill:#6c8df4;opacity:0.4;}.cls-15,.cls-16,.cls-17,.cls-22,.cls-5,.cls-9{mix-blend-mode:multiply;}.cls-6{fill:#0b8bd1;}.cls-7{fill:#cfe3ee;}.cls-10,.cls-11,.cls-12,.cls-8{fill:#fff;}.cls-9{fill:#2accf1;}.cls-10,.cls-11,.cls-12{stroke:#cfe3ee;}.cls-10,.cls-11,.cls-19{stroke-miterlimit:10;}.cls-10,.cls-19{stroke-width:17.01px;}.cls-11{stroke-width:36.85px;}.cls-12,.cls-18,.cls-20{stroke-linecap:round;stroke-linejoin:round;}.cls-12{stroke-width:11.34px;}.cls-13,.cls-15{fill:#f15a25;}.cls-14,.cls-16{fill:#fec81e;}.cls-15,.cls-16,.cls-17{opacity:0.2;}.cls-18,.cls-19,.cls-20{fill:none;}.cls-18{stroke:#1f588f;stroke-width:31.18px;}.cls-19{stroke:#70c329;}.cls-20{stroke:#fff;stroke-width:8.5px;}.cls-21,.cls-22{fill:#29abe2;}.cls-22{opacity:0.21;}</style></defs><g class="cls-1"><g id="_ÎÓÈ_1" data-name="—ÎÓÈ_1"><rect class="cls-2" width="4000" height="4000"/><rect class="cls-3" x="2758.44" y="1152.22" width="438.79" height="1989.94" rx="219.4"/><path class="cls-4" d="M2896,934.73l-3.89,2435.6a75,75,0,0,1-75.14,74.91L974.61,3442.3a75,75,0,0,1-74.9-75.15l3.89-2435.6c0-.73,0-1.47,0-2.2a145.8,145.8,0,0,1,87.47-131.22h0A145.22,145.22,0,0,1,1049.6,786l1700.88,2.71a146.9,146.9,0,0,1,29.18,3,144.77,144.77,0,0,1,46.26,18.19,146.54,146.54,0,0,1,42.7,39.54l.47.66A145.08,145.08,0,0,1,2896,934.73Z" transform="translate(0 0)"/><rect class="cls-5" x="2420.3" y="761.11" width="7.6" height="108.26" transform="translate(1.31 -3.89) rotate(0.09)"/><path class="cls-6" d="M2423.39,822l-.13,84.08a58.64,58.64,0,0,1-57.39,46.24l-957.43-1.53a58.64,58.64,0,0,1-58.52-58.74l.11-71.76Z" transform="translate(0 0)"/><path class="cls-6" d="M2873.92,907.39,2870,3343a75,75,0,0,1-75.15,74.92L952.52,3415a75,75,0,0,1-74.9-75.15l3.89-2435.6c0-.73,0-1.46,0-2.19A145.8,145.8,0,0,1,969,770.79h0a145.39,145.39,0,0,1,58.5-12.11l1700.88,2.71a146.08,146.08,0,0,1,29.18,3,144.43,144.43,0,0,1,46.26,18.18,146.44,146.44,0,0,1,42.7,39.55c.16.21.31.43.47.65a145.08,145.08,0,0,1,26.92,84.64Z" transform="translate(0 0)"/><rect class="cls-7" x="1028.09" y="884.6" width="1695.37" height="2407.39" transform="translate(-87.85 82.38) rotate(-2.46)"/><rect class="cls-8" x="672.13" y="1242.55" width="2407.39" height="1695.37" transform="translate(-217.4 3962.72) rotate(-89.91)"/><path class="cls-6" d="M2040.56,623.91A172.7,172.7,0,0,0,1889.43,508c-4-.27-7.93-.42-12-.42a172.65,172.65,0,0,0-173.09,172.54q0,8.28.74,16.38a171.42,171.42,0,0,0,17.64,61.53q1,2.1,2.15,4.14a169.57,169.57,0,0,0,9.56,15.69c3.1,4.54,6.42,8.92,9.91,13.13A176.68,176.68,0,0,0,1761,808.35a172.19,172.19,0,0,0,115.92,44.9q5.53,0,11-.33a172.57,172.57,0,0,0,121.76-61.48c3.5-4.2,6.84-8.57,9.95-13.09q3.14-4.54,6-9.3a171.64,171.64,0,0,0,23.63-72q.78-8.09.79-16.37A172.19,172.19,0,0,0,2040.56,623.91Zm-163.5,140.21a83.69,83.69,0,1,1,83.81-83.56A83.69,83.69,0,0,1,1877.06,764.12Z" transform="translate(0 0)"/><path class="cls-6" d="M2547.38,778.08l-.28,174.11L1228,950.08l.31-194.38c6.63-41.17,32.86-72.59,64.94-75.86a55.22,55.22,0,0,1,5.62-.28l1176.62,1.88c19.86,0,37.83,10.84,50.85,28.31,10.5,14.09,17.75,32.53,20.16,53.12A129,129,0,0,1,2547.38,778.08Z" transform="translate(0 0)"/><rect class="cls-9" x="1226.95" y="818.09" width="1319.96" height="130.71" transform="translate(1.41 -3.01) rotate(0.09)"/><path class="cls-10" d="M1168.1,3177.64h333" transform="translate(0 0)"/><circle class="cls-11" cx="2405.92" cy="2987.43" r="165.85" transform="translate(-1407.76 2576.24) rotate(-45)"/><circle class="cls-7" cx="2405.92" cy="2987.43" r="106.39" transform="translate(-1407.76 2576.24) rotate(-45)"/><path class="cls-12" d="M1163.78,3141.1c53.38,8.87,97.1-15.43,105.83-47.76,7-25.76-7-61.37-28.5-66.56-26.89-6.49-65.23,34.8-61.27,65.58,5.59,43.41,96,71.46,126.32,46,18.15-15.23,13.4-48.45,24.17-49.7,11.21-1.29,14.92,35.95,36.27,41.64,25.53,6.8,49.53-38.65,69.84-30.89,16.85,6.43,9.76,41.32,25.52,48.35,10,4.45,29.42-2.09,71.19-51" transform="translate(0 0)"/><path class="cls-8" d="M3007,1632.63a51,51,0,0,1-25.77-7.87,47.48,47.48,0,0,1-17.32-20.2q-6.13-13-6.14-29.7,0-27.54,17.95-43.38t50.67-15.83h6.91q20.53,0,35.93,7.15a54.05,54.05,0,0,1,23.8,20.58q8.4,13.44,8.4,31.09,0,25.44-13.39,40.89t-36.9,17.56v-33.59q12.77-.39,18.33-6.43t5.57-18.43q0-12.57-9.4-18.42t-30-6.14h-9.89q-22.35,0-32,5.61t-9.6,19.34q0,11.61,5.47,17.75t17.37,6.53Z" transform="translate(0 0)"/><path class="cls-8" d="M3009.07,1700.48v-18.24h-49.42v-33.68h139.73v55q0,24.85-11,38.87t-31.15,14q-14.58,0-24.16-5.91t-15.53-18.47l-56.42,29.18h-1.44v-36.09Zm25.91-18.24v21.31q0,9.6,5.05,14.44t14.1,4.85q9,0,14.19-4.9t5.15-14.39v-21.31Z" transform="translate(0 0)"/><path class="cls-8" d="M3019,1863.43v-53h-33.4V1873h-25.91v-96.26h139.73v96.45h-26v-62.76h-29.46v53Z" transform="translate(0 0)"/><path class="cls-8" d="M2959.65,1886.75h139.73v45a66.2,66.2,0,0,1-8.4,33.3,59.11,59.11,0,0,1-23.7,23.08,71.73,71.73,0,0,1-34.31,8.4h-6.43q-19.2,0-34.41-8.11a59.34,59.34,0,0,1-23.8-22.84,64.8,64.8,0,0,1-8.68-32.87Zm113.72,33.68h-87.81v11.71q0,14.49,10.32,22.27t30.66,7.77h6q20.25,0,30.52-7.77t10.27-22.65Z" transform="translate(0 0)"/><path class="cls-8" d="M2959.65,2049.7v-33.59h139.73v33.59Z" transform="translate(0 0)"/><path class="cls-8" d="M3073.37,2180v-41.93H2959.65V2104.4h113.72v-41.17h26V2180Z" transform="translate(0 0)"/><path class="cls-8" d="M2996.79,2309.48q7.38,0,11.51-5.23t8.55-18.38a174.19,174.19,0,0,1,8.54-21.49q13.34-27.16,36.66-27.16a32.83,32.83,0,0,1,20.48,6.76q8.88,6.76,13.82,19.15a74.39,74.39,0,0,1,5,27.83,65.27,65.27,0,0,1-5.38,27,42.68,42.68,0,0,1-15.31,18.56,39.91,39.91,0,0,1-22.69,6.63v-33.59q8.53,0,13.24-5.23t4.7-14.16q0-9-4-14.25a12.2,12.2,0,0,0-10.12-5.23q-5.39,0-9.74,5.76t-9,20.25a124.8,124.8,0,0,1-10,23.8q-13,22.65-36,22.65-18.33,0-28.79-13.82t-10.46-37.91a75.27,75.27,0,0,1,6.09-30.76q6.1-13.77,16.7-20.73A43.58,43.58,0,0,1,3005,2233v33.78q-11.23,0-16.56,5.8t-5.33,18.86c0,5.57,1.2,10,3.6,13.2A11.89,11.89,0,0,0,2996.79,2309.48Z" transform="translate(0 0)"/><path class="cls-8" d="M3007,2473.49a51,51,0,0,1-25.77-7.87,47.48,47.48,0,0,1-17.32-20.2q-6.13-13-6.14-29.7,0-27.55,17.95-43.38t50.67-15.83h6.91q20.53,0,35.93,7.14a54.13,54.13,0,0,1,23.8,20.59q8.4,13.44,8.4,31.09,0,25.44-13.39,40.88t-36.9,17.57v-33.59q12.77-.39,18.33-6.43t5.57-18.43q0-12.57-9.4-18.42t-30-6.14h-9.89q-22.35,0-32,5.61t-9.6,19.34q0,11.61,5.47,17.75T3007,2440Z" transform="translate(0 0)"/><path class="cls-8" d="M3026.63,2607.75q-20.43,0-36.18-7.59a56,56,0,0,1-24.23-21.54q-8.49-14-8.49-31.81t8.2-31.67a56,56,0,0,1,23.47-21.55q15.26-7.73,35-8.11h7.87q20.53,0,36.22,7.54a55.87,55.87,0,0,1,24.23,21.59q8.55,14.05,8.55,32,0,17.74-8.45,31.66a56.86,56.86,0,0,1-24,21.64q-15.6,7.73-35.75,7.83Zm5.86-34.26q20.82,0,31.62-7t10.79-19.91q0-25.34-38-26.78l-10.27-.1q-20.53,0-31.57,6.82t-11,20.25q0,12.77,10.85,19.67t31.19,7Z" transform="translate(0 0)"/><path class="cls-8" d="M3009.07,2677V2658.8h-49.42v-33.68h139.73v55q0,24.84-11,38.86t-31.15,14q-14.58,0-24.16-5.9t-15.53-18.47l-56.42,29.17h-1.44V2701.7ZM3035,2658.8v21.31q0,9.58,5.05,14.44t14.1,4.84q9,0,14.19-4.89t5.15-14.39V2658.8Z" transform="translate(0 0)"/><path class="cls-8" d="M3019,2840v-53h-33.4v62.57h-25.91v-96.25h139.73v96.44h-26V2787h-29.46v53Z" transform="translate(0 0)"/><path class="cls-13" d="M1579.43,1712.82a291.42,291.42,0,0,0,2.25,36.27H1172.81q-.93-18.12-.94-36.27a698.68,698.68,0,0,1,204.91-494.7q14.21-14.2,29.22-27.59l112.51,149.2,134.94,179A290.9,290.9,0,0,0,1579.43,1712.82Z" transform="translate(0 0)"/><path class="cls-14" d="M2311.66,1169,2200.3,1316.73,2065.87,1495a291.55,291.55,0,0,0-396.36,7L1535,1323.57l-111.6-148a700.7,700.7,0,0,1,588.92-148.15,696.68,696.68,0,0,1,250.52,105.4Q2288,1149.81,2311.66,1169Z" transform="translate(0 0)"/><path class="cls-3" d="M2571.1,1712.82q0,18.14-.94,36.27H2161.29A291.82,291.82,0,0,0,2082.43,1511L2217,1332.52l112.19-148.81q19.1,16.55,37,34.41a698,698,0,0,1,204.92,494.7Z" transform="translate(0 0)"/><path class="cls-15" d="M1653.45,1518.71a291.8,291.8,0,0,0-71.77,230.38H1384a497.78,497.78,0,0,1-4.47-66.77c0-129,49.29-250.32,139-342.59Z" transform="translate(0 0)"/><path class="cls-16" d="M2200.3,1316.73,2065.87,1495a291.55,291.55,0,0,0-396.36,7L1535,1323.57c91.49-85.93,210.32-133,336.39-133C1994.05,1190.53,2109.87,1235.15,2200.3,1316.73Z" transform="translate(0 0)"/><path class="cls-17" d="M2363.15,1682.32a497.78,497.78,0,0,1-4.47,66.77H2161.29A291.82,291.82,0,0,0,2082.43,1511L2217,1332.52c.7.67,1.39,1.36,2.08,2C2312,1427.45,2363.15,1551,2363.15,1682.32Z" transform="translate(0 0)"/><rect class="cls-7" x="1168.21" y="1887.11" width="207.52" height="207.52" rx="30.9" transform="translate(-720.93 3259.66) rotate(-89.91)"/><polyline class="cls-18" points="1216.38 1973.15 1268.44 2036.35 1367.3 1925.62"/><rect class="cls-7" x="1487.62" y="1887" width="1084.15" height="190.07"/><rect class="cls-7" x="1168.21" y="2200.87" width="207.52" height="207.52" rx="30.9" transform="translate(-1034.69 3572.92) rotate(-89.91)"/><polyline class="cls-18" points="1216.38 2286.9 1268.44 2350.1 1367.3 2239.38"/><rect class="cls-7" x="1487.62" y="2200.75" width="1084.15" height="190.07"/><path class="cls-7" d="M1344.67,2710.61l-145.73-.23a30.89,30.89,0,0,1-30.84-31l.23-145.72a30.9,30.9,0,0,1,30.94-30.85l145.73.24a30.88,30.88,0,0,1,30.84,30.94l-.23,145.72A30.89,30.89,0,0,1,1344.67,2710.61Z" transform="translate(0 0)"/><polyline class="cls-18" points="1216.38 2589.01 1268.44 2652.21 1367.3 2541.49"/><rect class="cls-7" x="1487.62" y="2502.86" width="1084.15" height="190.07"/><path class="cls-3" d="M1711.12,2188.34l-33.73-15.81-14.83,16.31-26.3-12.34,85.33-84.52,23.13,10.85-10.15,119.78-26.44-12.4Zm-18.93-32.05,22,10.29,5.6-40.57Z" transform="translate(0 0)"/><path class="cls-3" d="M1782.86,2203l-16.25,34.64L1742,2226.09,1789.88,2124l40.74,19.11a52.46,52.46,0,0,1,18.69,14,35.89,35.89,0,0,1,8.2,18.81,37.08,37.08,0,0,1-3.52,20.38q-7,14.93-21.89,18.86t-33.54-4.83Zm8.91-19,16.12,7.56q7.15,3.36,12.58,1.54c3.62-1.22,6.45-4,8.49-8.34q3.36-7.16,1.5-13.24t-8.47-9.28l-16.41-7.69Z" transform="translate(0 0)"/><path class="cls-3" d="M1876.32,2246.83l-16.24,34.64-24.61-11.54,47.87-102.09,40.74,19.1a52.41,52.41,0,0,1,18.7,14,35.92,35.92,0,0,1,8.2,18.82,37,37,0,0,1-3.53,20.37q-7,14.94-21.89,18.86T1892,2254.2Zm8.91-19,16.13,7.56q7.16,3.36,12.58,1.54t8.49-8.34q3.35-7.14,1.5-13.23t-8.48-9.28l-16.41-7.7Z" transform="translate(0 0)"/><path class="cls-3" d="M1983.8,2295.44l-13.32-6.25-16.94,36.11-24.61-11.54,47.88-102.09,40.18,18.84q18.15,8.52,24.62,21.38t-.44,27.56q-5,10.65-12.59,15.63t-18.82,5l2,51.21-.49,1.06L1984.88,2340Zm-4.44-25.18,15.56,7.3q7,3.29,12.28,1.26t8.38-8.64q3.09-6.6,1.28-12c-1.21-3.63-4.12-6.52-8.75-8.7l-15.57-7.29Z" transform="translate(0 0)"/><path class="cls-3" d="M2132,2349.3q-7,14.92-17.93,23.83a45.23,45.23,0,0,1-24,10.33,48.44,48.44,0,0,1-26.15-4.7,49.07,49.07,0,0,1-20.33-16.85,45.13,45.13,0,0,1-7.7-24.52q-.42-13.8,6.08-28.37l2.69-5.75q7-15,17.92-23.89a45.12,45.12,0,0,1,24.08-10.31,48.82,48.82,0,0,1,26.31,4.73,48.33,48.33,0,0,1,20.25,17,46,46,0,0,1,7.57,25q.3,14-6.53,28.8Zm-23-16q7.13-15.21,5.75-25.49a18,18,0,0,0-10.85-14.71q-18.51-8.67-32.59,18.59l-3.58,7.47q-7,15-5.85,25.41t11,15a17.79,17.79,0,0,0,18.09-1.18q8.76-5.57,15.8-20.39Z" transform="translate(0 0)"/><path class="cls-3" d="M2172.85,2394.28l55.19-64.79,27.48,12.9-82.23,86-26.93-12.63,13.8-118.07,27.28,12.79Z" transform="translate(0 0)"/><path class="cls-3" d="M2298.71,2434.32l-38.7-18.15-11.44,24.4,45.71,21.44-8.88,18.93-70.32-33L2263,2345.87l70.47,33.05-8.91,19-45.86-21.5-10.09,21.52,38.7,18.15Z" transform="translate(0 0)"/><path class="cls-3" d="M2295.43,2485.65l47.88-102.09,32.88,15.42a53.56,53.56,0,0,1,21.46,17.54,47.77,47.77,0,0,1,8.74,25.23,57.91,57.91,0,0,1-5.62,27.95l-2.21,4.69a58.1,58.1,0,0,1-17.71,22.36,47.76,47.76,0,0,1-24.84,9.56,52.33,52.33,0,0,1-27-4.91ZM2359,2414.1l-30.09,64.16,8.55,4q10.59,5,19.8.09t16.19-19.74l2.07-4.42q6.94-14.79,4.78-25t-13-15.26Z" transform="translate(0 0)"/><rect class="cls-19" x="1564.26" y="2167.33" width="958.54" height="256.92" transform="translate(1168.19 -650.47) rotate(25.13)"/><circle class="cls-20" cx="2333.42" cy="1536.37" r="101.38" transform="translate(-402.94 2099.97) rotate(-45)"/><circle class="cls-8" cx="2295.34" cy="1507.9" r="9.77" transform="translate(-393.95 2064.71) rotate(-45)"/><circle class="cls-8" cx="2367.68" cy="1507.9" r="9.77" transform="translate(-372.77 2115.86) rotate(-45)"/><path class="cls-20" d="M2277.26,1559.24c2.56,3.12,22.65,26.78,56.54,26.6,33.43-.17,53.17-23.41,55.78-26.6" transform="translate(0 0)"/><path class="cls-21" d="M2245.12,1577.69a21.38,21.38,0,0,0,10.74-23.74c-2.27-10.39-11.58-19.24-24.8-17.31-134.2,19.59-340.82,50.59-370.23,60.67a84.22,84.22,0,0,0-54,101.75c.48,1.75,1,3.48,1.6,5.22a84.22,84.22,0,0,0,107,52.38C1944.78,1746.59,2127.08,1644.49,2245.12,1577.69Zm-382.78,123a40,40,0,0,1,.28-56.51,39.95,39.95,0,1,1-.28,56.51Z" transform="translate(0 0)"/><path class="cls-22" d="M1915.42,1756.66a84.22,84.22,0,0,1-107-52.38c-.59-1.74-1.12-3.47-1.6-5.22l45.69-14.76a39.55,39.55,0,0,0,9.79,16.37,40,40,0,0,0,66.25-41L2255.86,1554a21.38,21.38,0,0,1-10.74,23.74C2127.08,1644.49,1944.78,1746.59,1915.42,1756.66Z" transform="translate(0 0)"/></g></g></svg>