<?xml version="1.0" encoding="utf-8"?>
<svg viewBox="58.952 68.987 808.217 298.874" xmlns="http://www.w3.org/2000/svg" width="399.97" height="148.32">
  <g transform="matrix(1, 0, 0, 1, 42.58416, -79.918159)">
    <g>
      <g>
        <path fill="#9D9E9F" d="M28.87,446.062v-38.636H16.368v-7.474h33.272v7.474H37.138v38.636H28.87z"/>
        <path fill="#9D9E9F" d="M56.062,446.062v-46.109h8.268v17.994H86.5v-17.994h8.198v46.109H86.5v-20.641H64.33v20.641H56.062z"/>
        <path fill="#9D9E9F" d="M104.953,446.062v-46.109h29.379v7.474h-21.105v10.985h19.776v7.474h-19.776v12.702h21.564v7.475H104.953 z"/>
        <path fill="#9D9E9F" d="M170.121,446.062v-46.109h8.274v17.994h22.164v-17.994h8.197v46.109h-8.197v-20.641h-22.164v20.641 H170.121z"/>
        <path fill="#9D9E9F" d="M218.624,399.952h8.268v27.586c0,7.938,3.905,11.772,10.456,11.772c6.41,0,10.385-3.834,10.385-11.772 v-27.586h8.268v28.444c0,5.892-1.717,10.455-5.222,13.631c-3.511,3.176-7.938,4.764-13.431,4.764 c-5.492,0-9.997-1.588-13.501-4.764c-3.505-3.176-5.222-7.739-5.222-13.631V399.952z"/>
        <path fill="#9D9E9F" d="M265.869,446.062v-47.833l31.419,30.832v-29.108h8.274v47.826l-31.425-30.696v28.979H265.869z"/>
        <path fill="#9D9E9F" d="M324.486,446.062v-38.636h-12.508v-7.474h33.278v7.474h-12.502v38.636H324.486z"/>
        <path fill="#9D9E9F" d="M351.678,446.062v-46.109h29.367v7.474h-21.099v10.985h19.782v7.474h-19.782v12.702h21.57v7.475H351.678z "/>
        <path fill="#9D9E9F" d="M389.913,446.062v-46.109h17.936c4.164,0,7.668,1.388,10.585,4.233c2.905,2.776,4.363,6.216,4.363,10.386 c0,6.021-3.375,10.979-8.397,13.096l11.173,18.395h-9.326l-9.856-16.407h-0.129h-8.074v16.407H389.913z M398.187,422.245h8.803 c4.493,0,7.604-3.11,7.604-7.539c0-4.233-2.981-7.28-6.945-7.28h-9.461V422.245z"/>
        <path fill="#9D9E9F" d="M437.004,432.431c2.388,4.698,6.222,7.015,11.585,7.015c5.751,0,7.804-3.04,7.804-6.021 c0-2.052-0.724-3.439-2.646-4.698c-1.923-1.317-3.311-1.917-6.745-3.176c-4.233-1.588-6.68-2.775-9.326-4.893 c-2.646-2.182-3.904-5.163-3.904-9.062c0-3.705,1.388-6.687,4.099-8.997c2.781-2.317,6.156-3.44,10.19-3.44 c6.28,0,11.044,2.511,14.22,7.474l-5.887,4.034c-1.782-2.711-4.499-4.099-8.203-4.099c-3.635,0-6.28,2.047-6.28,4.893 c0,1.917,0.787,2.847,1.917,3.97c0.729,0.529,2.575,1.323,3.434,1.787l2.388,0.924l2.705,1.059 c4.375,1.787,7.48,3.704,9.397,5.757s2.916,4.828,2.916,8.274c0,8.133-5.627,13.625-16.147,13.625 c-8.533,0-14.819-3.97-17.724-10.521L437.004,432.431z"/>
        <path fill="#9D9E9F" d="M535.786,407.426l-5.622,4.828c-3.305-3.77-7.539-5.622-12.637-5.622c-4.629,0-8.533,1.588-11.644,4.699 c-3.111,3.104-4.629,7.01-4.629,11.708s1.518,8.604,4.629,11.708c3.11,3.111,7.015,4.634,11.644,4.634 c5.228,0,9.526-1.917,12.767-5.757l5.563,4.828c-4.505,5.292-11.114,8.403-18.329,8.403c-6.816,0-12.638-2.252-17.401-6.745 c-4.692-4.569-7.08-10.256-7.08-17.071s2.388-12.502,7.08-17.071c4.764-4.563,10.585-6.81,17.401-6.81 C524.872,399.158,530.952,401.934,535.786,407.426z"/>
        <path fill="#9D9E9F" d="M546.971,440.11c-4.692-4.569-7.08-10.256-7.08-17.007c0-6.745,2.388-12.438,7.08-17 c4.698-4.629,10.456-6.945,17.266-6.945c6.821,0,12.572,2.316,17.265,6.945c4.764,4.563,7.151,10.255,7.151,17 c0,6.751-2.388,12.438-7.08,17.007c-4.693,4.563-10.515,6.88-17.336,6.88C557.427,446.99,551.669,444.674,546.971,440.11z M552.663,434.817c3.104,3.105,7.01,4.693,11.573,4.693s8.409-1.588,11.514-4.693c3.105-3.175,4.693-7.08,4.693-11.714 c0-4.628-1.588-8.532-4.693-11.708c-3.104-3.176-6.95-4.764-11.514-4.764s-8.469,1.588-11.573,4.764 c-3.11,3.176-4.634,7.08-4.634,11.708C548.029,427.803,549.553,431.707,552.663,434.817z"/>
        <path fill="#9D9E9F" d="M596.332,446.062v-47.633l23.546,28.515l23.558-28.515v47.633h-8.139v-26.134l-15.419,18.789 l-15.413-18.789v26.134H596.332z"/>
        <path fill="#9D9E9F" d="M653.691,446.062v-46.109h17.595c3.904,0,7.409,1.388,10.455,4.169c3.046,2.775,4.563,6.416,4.563,10.844 c0,4.305-1.518,7.874-4.563,10.721c-2.976,2.846-6.48,4.233-10.455,4.233h-9.327v16.143H653.691z M661.959,422.445h8.938 c3.705,0,7.21-2.717,7.21-7.48c0-4.828-3.505-7.539-7.21-7.539h-8.938V422.445z"/>
        <path fill="#9D9E9F" d="M685.188,446.062l22.816-48.362l22.758,48.362h-8.797l-4.1-8.933h-19.847l-4.104,8.933H685.188z M701.124,429.984h13.631l-6.81-15.02L701.124,429.984z"/>
        <path fill="#9D9E9F" d="M737.184,446.062v-47.833l31.426,30.832v-29.108h8.268v47.826l-31.42-30.696v28.979H737.184z"/>
        <path fill="#9D9E9F" d="M799.775,446.062v-17.865l-16.606-28.244h8.938l11.838,20.306l11.778-20.306h8.862l-16.601,28.244v17.865 H799.775z"/>
      </g>
      <g>
        <polygon fill="#E72C67" points="149.692,152.492 143.67,152.492 143.67,158.514 143.67,194.915 143.67,200.937 149.692,200.937 &#10;&#9;&#9;&#9;&#9;199.459,200.937 199.459,367.351 199.459,373.372 205.481,373.372 248.444,373.372 254.466,373.372 254.466,367.351 &#10;&#9;&#9;&#9;&#9;254.466,200.937 304.239,200.937 310.261,200.937 310.261,194.915 310.261,158.514 310.261,152.492 304.239,152.492 &#9;&#9;&#9;"/>
        <path fill="#E72C67" d="M710.997,357.142l-13.137-34.313l-2.399-6.269l-5.969,3.064c-10.873,5.574-23.928,8.285-39.911,8.285 c-31.55,0-63.493-22.322-63.493-64.98c0-37.653,25.698-64.98,61.105-64.98c16.418,0,30.926,2.74,40.863,7.715l5.922,2.964 l2.388-6.18l13.132-34.007l2.058-5.322l-5.204-2.341c-17.754-7.992-37.395-11.873-60.053-11.873 c-66.021,0-115.812,49.02-115.812,114.024c0,74.854,59.465,114.018,118.199,114.018c24.022,0,43.47-4.028,59.459-12.308 l4.774-2.477L710.997,357.142z"/>
      </g>
    </g>
    <g>
      <polygon fill="#E72C67" points="500.732,152.492 457.769,152.492 451.747,152.492 451.747,158.514 451.747,241.724 &#10;&#9;&#9;&#9;421.597,226.217 418.722,224.741 415.899,226.323 389.207,241.306 389.207,158.514 389.207,152.492 383.186,152.492 &#10;&#9;&#9;&#9;340.222,152.492 334.201,152.492 334.201,158.514 334.201,367.351 334.201,373.372 340.222,373.372 383.186,373.372 &#10;&#9;&#9;&#9;389.207,373.372 389.207,367.351 389.207,303.017 368.667,303.017 387.114,292.85 386.767,292.85 419.845,274.808 &#10;&#9;&#9;&#9;420.109,274.949 420.109,274.808 428.884,279.645 453.564,292.85 452.841,292.85 471.288,303.017 451.747,303.017 &#10;&#9;&#9;&#9;451.747,367.351 451.747,373.372 457.769,373.372 500.732,373.372 506.754,373.372 506.754,367.351 506.754,158.514 &#10;&#9;&#9;&#9;506.754,152.492 &#9;&#9;"/>
    </g>
  </g>
</svg>
